<mxfile host="app.diagrams.net" modified="2023-10-26T21:05:48.740Z" agent="Mozilla/5.0 (Windows NT 10.0; Win64; x64) AppleWebKit/537.36 (KHTML, like Gecko) Chrome/118.0.0.0 Safari/537.36" etag="WRVL-2dpKOby3Fjwixc0" version="22.0.8" type="github">
  <diagram name="Page-1" id="yUO-QkWpa_U_Ise3Jthb">
    <mxGraphModel dx="1434" dy="756" grid="1" gridSize="10" guides="1" tooltips="1" connect="1" arrows="1" fold="1" page="1" pageScale="1" pageWidth="850" pageHeight="1100" math="0" shadow="0">
      <root>
        <mxCell id="0" />
        <mxCell id="1" parent="0" />
        <mxCell id="3FXkl9Uenxrdrb0-9oeA-2" value="" style="rounded=0;whiteSpace=wrap;html=1;" parent="1" vertex="1">
          <mxGeometry x="234.5" y="157" width="370" height="853" as="geometry" />
        </mxCell>
        <mxCell id="3FXkl9Uenxrdrb0-9oeA-6" value="User" style="shape=umlActor;verticalLabelPosition=bottom;verticalAlign=top;html=1;outlineConnect=0;" parent="1" vertex="1">
          <mxGeometry x="40" y="594" width="30" height="60" as="geometry" />
        </mxCell>
        <mxCell id="3FXkl9Uenxrdrb0-9oeA-7" value="&amp;lt;&amp;lt;actor&amp;gt;&amp;gt;&lt;br&gt;&lt;br&gt;&lt;b&gt;UserManagementSystem&lt;br&gt;&lt;/b&gt;" style="html=1;align=center;verticalAlign=middle;dashed=0;whiteSpace=wrap;" parent="1" vertex="1">
          <mxGeometry x="660" y="350" width="160" height="70" as="geometry" />
        </mxCell>
        <mxCell id="3FXkl9Uenxrdrb0-9oeA-8" value="CreateUserAccount" style="ellipse;whiteSpace=wrap;html=1;" parent="1" vertex="1">
          <mxGeometry x="359.75" y="230" width="120" height="30" as="geometry" />
        </mxCell>
        <mxCell id="3FXkl9Uenxrdrb0-9oeA-9" value="UserSignIn" style="ellipse;whiteSpace=wrap;html=1;" parent="1" vertex="1">
          <mxGeometry x="382.25" y="270" width="75" height="30" as="geometry" />
        </mxCell>
        <mxCell id="3FXkl9Uenxrdrb0-9oeA-10" value="" style="endArrow=none;html=1;rounded=0;entryX=0;entryY=0.5;entryDx=0;entryDy=0;exitX=0.5;exitY=0;exitDx=0;exitDy=0;exitPerimeter=0;" parent="1" source="3FXkl9Uenxrdrb0-9oeA-6" target="3FXkl9Uenxrdrb0-9oeA-8" edge="1">
          <mxGeometry width="50" height="50" relative="1" as="geometry">
            <mxPoint x="216.5" y="390" as="sourcePoint" />
            <mxPoint x="446.5" y="410" as="targetPoint" />
          </mxGeometry>
        </mxCell>
        <mxCell id="3FXkl9Uenxrdrb0-9oeA-11" value="" style="endArrow=none;html=1;rounded=0;entryX=0;entryY=0.5;entryDx=0;entryDy=0;exitX=0.5;exitY=0;exitDx=0;exitDy=0;exitPerimeter=0;" parent="1" source="3FXkl9Uenxrdrb0-9oeA-6" target="3FXkl9Uenxrdrb0-9oeA-9" edge="1">
          <mxGeometry width="50" height="50" relative="1" as="geometry">
            <mxPoint x="216.5" y="410" as="sourcePoint" />
            <mxPoint x="316.5" y="460" as="targetPoint" />
          </mxGeometry>
        </mxCell>
        <mxCell id="3FXkl9Uenxrdrb0-9oeA-12" value="" style="endArrow=none;html=1;rounded=0;entryX=1;entryY=0.5;entryDx=0;entryDy=0;exitX=0;exitY=0;exitDx=0;exitDy=0;" parent="1" source="3FXkl9Uenxrdrb0-9oeA-7" target="3FXkl9Uenxrdrb0-9oeA-8" edge="1">
          <mxGeometry width="50" height="50" relative="1" as="geometry">
            <mxPoint x="623.5" y="415" as="sourcePoint" />
            <mxPoint x="446.5" y="410" as="targetPoint" />
          </mxGeometry>
        </mxCell>
        <mxCell id="3FXkl9Uenxrdrb0-9oeA-13" value="" style="endArrow=none;html=1;rounded=0;entryX=0;entryY=0;entryDx=0;entryDy=0;exitX=1;exitY=0.5;exitDx=0;exitDy=0;" parent="1" source="3FXkl9Uenxrdrb0-9oeA-9" target="3FXkl9Uenxrdrb0-9oeA-7" edge="1">
          <mxGeometry width="50" height="50" relative="1" as="geometry">
            <mxPoint x="476.5" y="470" as="sourcePoint" />
            <mxPoint x="623.5" y="414" as="targetPoint" />
          </mxGeometry>
        </mxCell>
        <mxCell id="3FXkl9Uenxrdrb0-9oeA-1" value="&quot;Chroncicle&quot; Application" style="rounded=0;whiteSpace=wrap;html=1;" parent="1" vertex="1">
          <mxGeometry x="359.75" y="160" width="120" height="60" as="geometry" />
        </mxCell>
        <mxCell id="3FXkl9Uenxrdrb0-9oeA-21" value="EditProfileInfo" style="ellipse;whiteSpace=wrap;html=1;" parent="1" vertex="1">
          <mxGeometry x="372" y="310" width="95.5" height="30" as="geometry" />
        </mxCell>
        <mxCell id="3FXkl9Uenxrdrb0-9oeA-22" value="" style="endArrow=none;html=1;rounded=0;entryX=0;entryY=0.5;entryDx=0;entryDy=0;exitX=0.5;exitY=0;exitDx=0;exitDy=0;exitPerimeter=0;" parent="1" source="3FXkl9Uenxrdrb0-9oeA-6" target="3FXkl9Uenxrdrb0-9oeA-21" edge="1">
          <mxGeometry width="50" height="50" relative="1" as="geometry">
            <mxPoint x="107" y="390" as="sourcePoint" />
            <mxPoint x="432" y="250" as="targetPoint" />
          </mxGeometry>
        </mxCell>
        <mxCell id="3FXkl9Uenxrdrb0-9oeA-23" value="" style="endArrow=none;html=1;rounded=0;exitX=1;exitY=0.5;exitDx=0;exitDy=0;entryX=0;entryY=0;entryDx=0;entryDy=0;" parent="1" source="3FXkl9Uenxrdrb0-9oeA-21" target="3FXkl9Uenxrdrb0-9oeA-7" edge="1">
          <mxGeometry width="50" height="50" relative="1" as="geometry">
            <mxPoint x="542" y="300" as="sourcePoint" />
            <mxPoint x="600" y="355" as="targetPoint" />
          </mxGeometry>
        </mxCell>
        <mxCell id="3FXkl9Uenxrdrb0-9oeA-24" value="DeleteProfile" style="ellipse;whiteSpace=wrap;html=1;" parent="1" vertex="1">
          <mxGeometry x="372.5" y="350" width="95" height="30" as="geometry" />
        </mxCell>
        <mxCell id="3FXkl9Uenxrdrb0-9oeA-25" value="" style="endArrow=none;html=1;rounded=0;entryX=0;entryY=0.5;entryDx=0;entryDy=0;exitX=0.5;exitY=0;exitDx=0;exitDy=0;exitPerimeter=0;" parent="1" source="3FXkl9Uenxrdrb0-9oeA-6" target="3FXkl9Uenxrdrb0-9oeA-24" edge="1">
          <mxGeometry width="50" height="50" relative="1" as="geometry">
            <mxPoint x="210" y="490" as="sourcePoint" />
            <mxPoint x="450" y="400" as="targetPoint" />
          </mxGeometry>
        </mxCell>
        <mxCell id="3FXkl9Uenxrdrb0-9oeA-26" value="" style="endArrow=none;html=1;rounded=0;exitX=1;exitY=0.5;exitDx=0;exitDy=0;entryX=0;entryY=0.25;entryDx=0;entryDy=0;" parent="1" source="3FXkl9Uenxrdrb0-9oeA-24" target="3FXkl9Uenxrdrb0-9oeA-7" edge="1">
          <mxGeometry width="50" height="50" relative="1" as="geometry">
            <mxPoint x="560" y="450" as="sourcePoint" />
            <mxPoint x="618" y="505" as="targetPoint" />
          </mxGeometry>
        </mxCell>
        <mxCell id="3FXkl9Uenxrdrb0-9oeA-27" value="&amp;lt;&amp;lt;actor&amp;gt;&amp;gt;&lt;br&gt;&lt;br&gt;&lt;b style=&quot;border-color: var(--border-color);&quot;&gt;TimelineManagemetSystem&lt;/b&gt;&lt;b&gt;&lt;br&gt;&lt;/b&gt;" style="html=1;align=center;verticalAlign=middle;dashed=0;whiteSpace=wrap;" parent="1" vertex="1">
          <mxGeometry x="660" y="589" width="160" height="70" as="geometry" />
        </mxCell>
        <mxCell id="3FXkl9Uenxrdrb0-9oeA-28" value="ViewOtherUserTimeline" style="ellipse;whiteSpace=wrap;html=1;" parent="1" vertex="1">
          <mxGeometry x="337.25" y="470" width="165" height="30" as="geometry" />
        </mxCell>
        <mxCell id="3FXkl9Uenxrdrb0-9oeA-29" value="" style="endArrow=none;html=1;rounded=0;entryX=0;entryY=0.5;entryDx=0;entryDy=0;exitX=0.5;exitY=0.5;exitDx=0;exitDy=0;exitPerimeter=0;" parent="1" source="3FXkl9Uenxrdrb0-9oeA-6" target="3FXkl9Uenxrdrb0-9oeA-28" edge="1">
          <mxGeometry width="50" height="50" relative="1" as="geometry">
            <mxPoint x="85" y="540" as="sourcePoint" />
            <mxPoint x="310" y="370" as="targetPoint" />
          </mxGeometry>
        </mxCell>
        <mxCell id="3FXkl9Uenxrdrb0-9oeA-30" value="SearchUserTimelines" style="ellipse;whiteSpace=wrap;html=1;" parent="1" vertex="1">
          <mxGeometry x="360" y="510" width="120" height="30" as="geometry" />
        </mxCell>
        <mxCell id="3FXkl9Uenxrdrb0-9oeA-31" value="" style="endArrow=none;html=1;rounded=0;entryX=0;entryY=0.5;entryDx=0;entryDy=0;exitX=0.5;exitY=0.5;exitDx=0;exitDy=0;exitPerimeter=0;" parent="1" source="3FXkl9Uenxrdrb0-9oeA-6" target="3FXkl9Uenxrdrb0-9oeA-30" edge="1">
          <mxGeometry width="50" height="50" relative="1" as="geometry">
            <mxPoint x="200" y="480" as="sourcePoint" />
            <mxPoint x="375" y="530" as="targetPoint" />
          </mxGeometry>
        </mxCell>
        <mxCell id="3FXkl9Uenxrdrb0-9oeA-32" value="" style="endArrow=none;html=1;rounded=0;exitX=1;exitY=0.5;exitDx=0;exitDy=0;entryX=0;entryY=0;entryDx=0;entryDy=0;" parent="1" source="3FXkl9Uenxrdrb0-9oeA-28" target="3FXkl9Uenxrdrb0-9oeA-27" edge="1">
          <mxGeometry width="50" height="50" relative="1" as="geometry">
            <mxPoint x="508" y="410" as="sourcePoint" />
            <mxPoint x="620" y="457" as="targetPoint" />
          </mxGeometry>
        </mxCell>
        <mxCell id="3FXkl9Uenxrdrb0-9oeA-34" value="" style="endArrow=none;html=1;rounded=0;exitX=1;exitY=0.5;exitDx=0;exitDy=0;entryX=0;entryY=0;entryDx=0;entryDy=0;" parent="1" source="3FXkl9Uenxrdrb0-9oeA-30" target="3FXkl9Uenxrdrb0-9oeA-27" edge="1">
          <mxGeometry width="50" height="50" relative="1" as="geometry">
            <mxPoint x="400" y="450" as="sourcePoint" />
            <mxPoint x="450" y="400" as="targetPoint" />
          </mxGeometry>
        </mxCell>
        <mxCell id="3FXkl9Uenxrdrb0-9oeA-45" value="ViewTimeLine" style="ellipse;whiteSpace=wrap;html=1;" parent="1" vertex="1">
          <mxGeometry x="372" y="547" width="95" height="30" as="geometry" />
        </mxCell>
        <mxCell id="3FXkl9Uenxrdrb0-9oeA-46" value="" style="endArrow=none;html=1;rounded=0;exitX=0.5;exitY=0.5;exitDx=0;exitDy=0;exitPerimeter=0;" parent="1" source="3FXkl9Uenxrdrb0-9oeA-6" target="3FXkl9Uenxrdrb0-9oeA-45" edge="1">
          <mxGeometry width="50" height="50" relative="1" as="geometry">
            <mxPoint x="90" y="540" as="sourcePoint" />
            <mxPoint x="355" y="540" as="targetPoint" />
          </mxGeometry>
        </mxCell>
        <mxCell id="3FXkl9Uenxrdrb0-9oeA-47" value="SearchUserTimeLine" style="ellipse;whiteSpace=wrap;html=1;" parent="1" vertex="1">
          <mxGeometry x="360" y="626" width="120" height="30" as="geometry" />
        </mxCell>
        <mxCell id="3FXkl9Uenxrdrb0-9oeA-48" value="" style="endArrow=none;html=1;rounded=0;entryX=0;entryY=0.5;entryDx=0;entryDy=0;exitX=0.5;exitY=0.5;exitDx=0;exitDy=0;exitPerimeter=0;" parent="1" source="3FXkl9Uenxrdrb0-9oeA-6" target="3FXkl9Uenxrdrb0-9oeA-47" edge="1">
          <mxGeometry width="50" height="50" relative="1" as="geometry">
            <mxPoint x="190" y="630" as="sourcePoint" />
            <mxPoint x="440" y="540" as="targetPoint" />
          </mxGeometry>
        </mxCell>
        <mxCell id="3FXkl9Uenxrdrb0-9oeA-49" value="" style="endArrow=none;html=1;rounded=0;exitX=1;exitY=0.5;exitDx=0;exitDy=0;entryX=0;entryY=0.5;entryDx=0;entryDy=0;" parent="1" source="3FXkl9Uenxrdrb0-9oeA-47" target="3FXkl9Uenxrdrb0-9oeA-27" edge="1">
          <mxGeometry width="50" height="50" relative="1" as="geometry">
            <mxPoint x="550" y="510" as="sourcePoint" />
            <mxPoint x="630" y="630" as="targetPoint" />
          </mxGeometry>
        </mxCell>
        <mxCell id="3FXkl9Uenxrdrb0-9oeA-50" value="AddEntryToTimeLine" style="ellipse;whiteSpace=wrap;html=1;" parent="1" vertex="1">
          <mxGeometry x="360" y="587" width="120" height="30" as="geometry" />
        </mxCell>
        <mxCell id="3FXkl9Uenxrdrb0-9oeA-51" value="" style="endArrow=none;html=1;rounded=0;entryX=0;entryY=0.5;entryDx=0;entryDy=0;exitX=0.5;exitY=0.5;exitDx=0;exitDy=0;exitPerimeter=0;" parent="1" source="3FXkl9Uenxrdrb0-9oeA-6" target="3FXkl9Uenxrdrb0-9oeA-50" edge="1">
          <mxGeometry width="50" height="50" relative="1" as="geometry">
            <mxPoint x="190" y="630" as="sourcePoint" />
            <mxPoint x="300" y="510" as="targetPoint" />
          </mxGeometry>
        </mxCell>
        <mxCell id="3FXkl9Uenxrdrb0-9oeA-52" value="" style="endArrow=none;html=1;rounded=0;exitX=1;exitY=0.5;exitDx=0;exitDy=0;entryX=0;entryY=0.5;entryDx=0;entryDy=0;" parent="1" source="3FXkl9Uenxrdrb0-9oeA-50" target="3FXkl9Uenxrdrb0-9oeA-27" edge="1">
          <mxGeometry width="50" height="50" relative="1" as="geometry">
            <mxPoint x="485" y="760" as="sourcePoint" />
            <mxPoint x="630" y="630" as="targetPoint" />
          </mxGeometry>
        </mxCell>
        <mxCell id="3FXkl9Uenxrdrb0-9oeA-53" value="" style="endArrow=none;html=1;rounded=0;entryX=0;entryY=0.5;entryDx=0;entryDy=0;" parent="1" source="3FXkl9Uenxrdrb0-9oeA-45" target="3FXkl9Uenxrdrb0-9oeA-27" edge="1">
          <mxGeometry width="50" height="50" relative="1" as="geometry">
            <mxPoint x="475" y="510" as="sourcePoint" />
            <mxPoint x="630" y="630" as="targetPoint" />
          </mxGeometry>
        </mxCell>
        <mxCell id="3FXkl9Uenxrdrb0-9oeA-54" value="ViewOtherUser Profile" style="ellipse;whiteSpace=wrap;html=1;" parent="1" vertex="1">
          <mxGeometry x="360" y="390" width="120" height="40" as="geometry" />
        </mxCell>
        <mxCell id="3FXkl9Uenxrdrb0-9oeA-55" value="" style="endArrow=none;html=1;rounded=0;entryX=0;entryY=0.5;entryDx=0;entryDy=0;exitX=0.5;exitY=0;exitDx=0;exitDy=0;exitPerimeter=0;" parent="1" source="3FXkl9Uenxrdrb0-9oeA-6" target="3FXkl9Uenxrdrb0-9oeA-54" edge="1">
          <mxGeometry width="50" height="50" relative="1" as="geometry">
            <mxPoint x="85" y="260" as="sourcePoint" />
            <mxPoint x="450" y="150" as="targetPoint" />
          </mxGeometry>
        </mxCell>
        <mxCell id="3FXkl9Uenxrdrb0-9oeA-56" value="" style="endArrow=none;html=1;rounded=0;entryX=0;entryY=0.75;entryDx=0;entryDy=0;exitX=1;exitY=0.5;exitDx=0;exitDy=0;" parent="1" source="3FXkl9Uenxrdrb0-9oeA-54" target="3FXkl9Uenxrdrb0-9oeA-7" edge="1">
          <mxGeometry width="50" height="50" relative="1" as="geometry">
            <mxPoint x="560" y="150" as="sourcePoint" />
            <mxPoint x="650" y="117.5" as="targetPoint" />
          </mxGeometry>
        </mxCell>
        <mxCell id="3FXkl9Uenxrdrb0-9oeA-57" value="ViewTimelineReel" style="ellipse;whiteSpace=wrap;html=1;" parent="1" vertex="1">
          <mxGeometry x="353.25" y="667" width="132.5" height="30" as="geometry" />
        </mxCell>
        <mxCell id="3FXkl9Uenxrdrb0-9oeA-58" value="" style="endArrow=none;html=1;rounded=0;entryX=0;entryY=0.5;entryDx=0;entryDy=0;exitX=1;exitY=1;exitDx=0;exitDy=0;exitPerimeter=0;" parent="1" source="3FXkl9Uenxrdrb0-9oeA-6" target="3FXkl9Uenxrdrb0-9oeA-57" edge="1">
          <mxGeometry width="50" height="50" relative="1" as="geometry">
            <mxPoint x="190" y="800" as="sourcePoint" />
            <mxPoint x="345" y="730" as="targetPoint" />
          </mxGeometry>
        </mxCell>
        <mxCell id="3FXkl9Uenxrdrb0-9oeA-59" value="" style="endArrow=none;html=1;rounded=0;entryX=0;entryY=1;entryDx=0;entryDy=0;exitX=1;exitY=0.5;exitDx=0;exitDy=0;" parent="1" source="3FXkl9Uenxrdrb0-9oeA-57" target="3FXkl9Uenxrdrb0-9oeA-27" edge="1">
          <mxGeometry width="50" height="50" relative="1" as="geometry">
            <mxPoint x="534" y="655.98" as="sourcePoint" />
            <mxPoint x="610" y="825" as="targetPoint" />
          </mxGeometry>
        </mxCell>
        <mxCell id="3FXkl9Uenxrdrb0-9oeA-60" value="SearchOtherUserTimelines" style="ellipse;whiteSpace=wrap;html=1;" parent="1" vertex="1">
          <mxGeometry x="341.25" y="707" width="157.5" height="30" as="geometry" />
        </mxCell>
        <mxCell id="3FXkl9Uenxrdrb0-9oeA-61" value="" style="endArrow=none;html=1;rounded=0;entryX=0;entryY=0.5;entryDx=0;entryDy=0;exitX=1;exitY=1;exitDx=0;exitDy=0;exitPerimeter=0;" parent="1" source="3FXkl9Uenxrdrb0-9oeA-6" target="3FXkl9Uenxrdrb0-9oeA-60" edge="1">
          <mxGeometry width="50" height="50" relative="1" as="geometry">
            <mxPoint x="100" y="570" as="sourcePoint" />
            <mxPoint x="430" y="690" as="targetPoint" />
          </mxGeometry>
        </mxCell>
        <mxCell id="3FXkl9Uenxrdrb0-9oeA-62" value="" style="endArrow=none;html=1;rounded=0;exitX=1;exitY=0.5;exitDx=0;exitDy=0;entryX=0;entryY=1;entryDx=0;entryDy=0;" parent="1" source="3FXkl9Uenxrdrb0-9oeA-60" target="3FXkl9Uenxrdrb0-9oeA-27" edge="1">
          <mxGeometry width="50" height="50" relative="1" as="geometry">
            <mxPoint x="580" y="950" as="sourcePoint" />
            <mxPoint x="690" y="770" as="targetPoint" />
          </mxGeometry>
        </mxCell>
        <mxCell id="3FXkl9Uenxrdrb0-9oeA-63" value="ViewJournalEntry" style="ellipse;whiteSpace=wrap;html=1;" parent="1" vertex="1">
          <mxGeometry x="360" y="782" width="120" height="32" as="geometry" />
        </mxCell>
        <mxCell id="3FXkl9Uenxrdrb0-9oeA-64" value="&amp;lt;&amp;lt;actor&amp;gt;&amp;gt;&lt;br&gt;&lt;br&gt;&lt;b&gt;JournalManagementSystem&lt;br&gt;&lt;/b&gt;" style="html=1;align=center;verticalAlign=middle;dashed=0;whiteSpace=wrap;" parent="1" vertex="1">
          <mxGeometry x="660" y="837" width="170" height="70" as="geometry" />
        </mxCell>
        <mxCell id="3FXkl9Uenxrdrb0-9oeA-65" value="" style="endArrow=none;html=1;rounded=0;entryX=0;entryY=0.5;entryDx=0;entryDy=0;exitX=1;exitY=1;exitDx=0;exitDy=0;exitPerimeter=0;" parent="1" source="3FXkl9Uenxrdrb0-9oeA-6" target="3FXkl9Uenxrdrb0-9oeA-63" edge="1">
          <mxGeometry width="50" height="50" relative="1" as="geometry">
            <mxPoint x="190" y="882" as="sourcePoint" />
            <mxPoint x="355" y="832" as="targetPoint" />
          </mxGeometry>
        </mxCell>
        <mxCell id="3FXkl9Uenxrdrb0-9oeA-66" value="SearchJournalEntrries" style="ellipse;whiteSpace=wrap;html=1;" parent="1" vertex="1">
          <mxGeometry x="350.75" y="942" width="135" height="32" as="geometry" />
        </mxCell>
        <mxCell id="3FXkl9Uenxrdrb0-9oeA-67" value="" style="endArrow=none;html=1;rounded=0;entryX=0;entryY=0.5;entryDx=0;entryDy=0;exitX=1;exitY=1;exitDx=0;exitDy=0;exitPerimeter=0;" parent="1" source="3FXkl9Uenxrdrb0-9oeA-6" target="3FXkl9Uenxrdrb0-9oeA-66" edge="1">
          <mxGeometry width="50" height="50" relative="1" as="geometry">
            <mxPoint x="200" y="972" as="sourcePoint" />
            <mxPoint x="440" y="832" as="targetPoint" />
          </mxGeometry>
        </mxCell>
        <mxCell id="3FXkl9Uenxrdrb0-9oeA-68" value="" style="endArrow=none;html=1;rounded=0;exitX=1;exitY=0.5;exitDx=0;exitDy=0;entryX=0;entryY=1;entryDx=0;entryDy=0;" parent="1" source="3FXkl9Uenxrdrb0-9oeA-66" target="3FXkl9Uenxrdrb0-9oeA-64" edge="1">
          <mxGeometry width="50" height="50" relative="1" as="geometry">
            <mxPoint x="550" y="802" as="sourcePoint" />
            <mxPoint x="610" y="932" as="targetPoint" />
          </mxGeometry>
        </mxCell>
        <mxCell id="3FXkl9Uenxrdrb0-9oeA-69" value="AddJournalEntry" style="ellipse;whiteSpace=wrap;html=1;" parent="1" vertex="1">
          <mxGeometry x="359.5" y="822" width="120" height="32" as="geometry" />
        </mxCell>
        <mxCell id="3FXkl9Uenxrdrb0-9oeA-70" value="DeleteJournalEntry" style="ellipse;whiteSpace=wrap;html=1;" parent="1" vertex="1">
          <mxGeometry x="359.5" y="902" width="120" height="32" as="geometry" />
        </mxCell>
        <mxCell id="3FXkl9Uenxrdrb0-9oeA-71" value="EditJournalEntry" style="ellipse;whiteSpace=wrap;html=1;" parent="1" vertex="1">
          <mxGeometry x="359.5" y="862" width="120" height="32" as="geometry" />
        </mxCell>
        <mxCell id="3FXkl9Uenxrdrb0-9oeA-72" value="" style="endArrow=none;html=1;rounded=0;entryX=0;entryY=0.5;entryDx=0;entryDy=0;exitX=1;exitY=1;exitDx=0;exitDy=0;exitPerimeter=0;" parent="1" source="3FXkl9Uenxrdrb0-9oeA-6" target="3FXkl9Uenxrdrb0-9oeA-69" edge="1">
          <mxGeometry width="50" height="50" relative="1" as="geometry">
            <mxPoint x="200" y="892" as="sourcePoint" />
            <mxPoint x="300" y="802" as="targetPoint" />
          </mxGeometry>
        </mxCell>
        <mxCell id="3FXkl9Uenxrdrb0-9oeA-73" value="" style="endArrow=none;html=1;rounded=0;entryX=0.025;entryY=0.617;entryDx=0;entryDy=0;entryPerimeter=0;exitX=1;exitY=1;exitDx=0;exitDy=0;exitPerimeter=0;" parent="1" source="3FXkl9Uenxrdrb0-9oeA-6" target="3FXkl9Uenxrdrb0-9oeA-71" edge="1">
          <mxGeometry width="50" height="50" relative="1" as="geometry">
            <mxPoint x="200" y="912" as="sourcePoint" />
            <mxPoint x="300" y="882" as="targetPoint" />
          </mxGeometry>
        </mxCell>
        <mxCell id="3FXkl9Uenxrdrb0-9oeA-74" value="" style="endArrow=none;html=1;rounded=0;entryX=0;entryY=0.5;entryDx=0;entryDy=0;exitX=1;exitY=1;exitDx=0;exitDy=0;exitPerimeter=0;" parent="1" source="3FXkl9Uenxrdrb0-9oeA-6" target="3FXkl9Uenxrdrb0-9oeA-70" edge="1">
          <mxGeometry width="50" height="50" relative="1" as="geometry">
            <mxPoint x="200" y="932" as="sourcePoint" />
            <mxPoint x="303" y="969" as="targetPoint" />
          </mxGeometry>
        </mxCell>
        <mxCell id="3FXkl9Uenxrdrb0-9oeA-75" value="" style="endArrow=none;html=1;rounded=0;exitX=1;exitY=0.5;exitDx=0;exitDy=0;entryX=0;entryY=0.5;entryDx=0;entryDy=0;" parent="1" source="3FXkl9Uenxrdrb0-9oeA-71" target="3FXkl9Uenxrdrb0-9oeA-64" edge="1">
          <mxGeometry width="50" height="50" relative="1" as="geometry">
            <mxPoint x="485" y="882" as="sourcePoint" />
            <mxPoint x="610" y="932" as="targetPoint" />
          </mxGeometry>
        </mxCell>
        <mxCell id="3FXkl9Uenxrdrb0-9oeA-76" value="" style="endArrow=none;html=1;rounded=0;exitX=1;exitY=0.5;exitDx=0;exitDy=0;entryX=0;entryY=1;entryDx=0;entryDy=0;" parent="1" source="3FXkl9Uenxrdrb0-9oeA-70" target="3FXkl9Uenxrdrb0-9oeA-64" edge="1">
          <mxGeometry width="50" height="50" relative="1" as="geometry">
            <mxPoint x="495" y="892" as="sourcePoint" />
            <mxPoint x="610" y="932" as="targetPoint" />
          </mxGeometry>
        </mxCell>
        <mxCell id="3FXkl9Uenxrdrb0-9oeA-77" value="" style="endArrow=none;html=1;rounded=0;exitX=1;exitY=0.5;exitDx=0;exitDy=0;entryX=0;entryY=0;entryDx=0;entryDy=0;" parent="1" source="3FXkl9Uenxrdrb0-9oeA-63" target="3FXkl9Uenxrdrb0-9oeA-64" edge="1">
          <mxGeometry width="50" height="50" relative="1" as="geometry">
            <mxPoint x="485" y="962" as="sourcePoint" />
            <mxPoint x="610" y="932" as="targetPoint" />
          </mxGeometry>
        </mxCell>
        <mxCell id="3FXkl9Uenxrdrb0-9oeA-78" value="" style="endArrow=none;html=1;rounded=0;exitX=1;exitY=0.5;exitDx=0;exitDy=0;entryX=0;entryY=0;entryDx=0;entryDy=0;" parent="1" source="3FXkl9Uenxrdrb0-9oeA-69" target="3FXkl9Uenxrdrb0-9oeA-64" edge="1">
          <mxGeometry width="50" height="50" relative="1" as="geometry">
            <mxPoint x="485" y="802" as="sourcePoint" />
            <mxPoint x="610" y="932" as="targetPoint" />
          </mxGeometry>
        </mxCell>
      </root>
    </mxGraphModel>
  </diagram>
</mxfile>
